<svg width="178" height="96" viewBox="0 0 178 96" fill="none" xmlns="http://www.w3.org/2000/svg">
<path d="M31.2695 40H23.8281V22.7266H31.2695C32.3398 22.7422 33.2305 22.8672 33.9414 23.1016C35.1523 23.5 36.1328 24.2305 36.8828 25.293C37.4844 26.1523 37.8945 27.082 38.1133 28.082C38.332 29.082 38.4414 30.0352 38.4414 30.9414C38.4414 33.2383 37.9805 35.1836 37.0586 36.7773C35.8086 38.9258 33.8789 40 31.2695 40ZM33.9531 27.1328C33.3984 26.1953 32.3008 25.7266 30.6602 25.7266H27.332V37H30.6602C32.3633 37 33.5508 36.1602 34.2227 34.4805C34.5898 33.5586 34.7734 32.4609 34.7734 31.1875C34.7734 29.4297 34.5 28.0781 33.9531 27.1328ZM53.1936 32.4531H44.8029V36.8945H54.3654V40H41.2756V22.7266H53.9436V25.7852H44.8029V29.4531H53.1936V32.4531ZM57.1762 22.7266H60.7856V36.8945H69.3402V40H57.1762V22.7266ZM71.5651 22.7266H75.151V40H71.5651V22.7266ZM77.2469 22.7266H81.1024L84.8524 35.8398L88.6375 22.7266H92.3875L86.493 40H83.0828L77.2469 22.7266ZM106.554 32.4531H98.1631V36.8945H107.726V40H94.6358V22.7266H107.304V25.7852H98.1631V29.4531H106.554V32.4531ZM117.872 33.2266H114.146V40H110.618V22.7266H119.091C120.302 22.75 121.232 22.8984 121.88 23.1719C122.536 23.4453 123.091 23.8477 123.544 24.3789C123.919 24.8164 124.216 25.3008 124.435 25.832C124.654 26.3633 124.763 26.9688 124.763 27.6484C124.763 28.4688 124.556 29.2773 124.142 30.0742C123.728 30.8633 123.044 31.4219 122.091 31.75C122.888 32.0703 123.45 32.5273 123.779 33.1211C124.115 33.707 124.282 34.6055 124.282 35.8164V36.9766C124.282 37.7656 124.314 38.3008 124.376 38.582C124.47 39.0273 124.689 39.3555 125.032 39.5664V40H121.06C120.95 39.6172 120.872 39.3086 120.825 39.0742C120.732 38.5898 120.681 38.0938 120.673 37.5859L120.65 35.9805C120.634 34.8789 120.431 34.1445 120.04 33.7773C119.657 33.4102 118.935 33.2266 117.872 33.2266ZM120.064 30.0859C120.782 29.7578 121.142 29.1094 121.142 28.1406C121.142 27.0938 120.794 26.3906 120.099 26.0312C119.708 25.8281 119.122 25.7266 118.341 25.7266H114.146V30.3672H118.236C119.048 30.3672 119.657 30.2734 120.064 30.0859ZM140.933 22.7266L135.156 33.5078V40H131.546V33.5078L125.57 22.7266H129.824L133.41 30.25L136.843 22.7266H140.933ZM154.301 40.4219C152.551 40.4219 151.183 39.9062 150.199 38.875C149.215 37.8438 148.723 36.6992 148.723 35.4414C148.723 34.4023 148.98 33.5117 149.496 32.7695C150.012 32.0273 150.855 31.293 152.027 30.5664L152.391 30.3438C151.891 29.7812 151.504 29.207 151.23 28.6211C150.957 28.0352 150.82 27.4258 150.82 26.793C150.82 25.5352 151.242 24.5547 152.086 23.8516C152.93 23.1406 154.023 22.7852 155.367 22.7852C156.594 22.7852 157.605 23.1484 158.402 23.875C159.207 24.5938 159.609 25.5156 159.609 26.6406C159.609 27.6562 159.367 28.4805 158.883 29.1133C158.406 29.7461 157.703 30.332 156.773 30.8711L159.223 33.8945C159.504 33.4883 159.719 33.0469 159.867 32.5703C160.023 32.0938 160.105 31.5898 160.113 31.0586H163.078C163.031 32.1055 162.781 33.1641 162.328 34.2344C162.078 34.8359 161.672 35.5 161.109 36.2266L164.25 40H160.195L159 38.5352C158.422 39.0742 157.883 39.4727 157.383 39.7305C156.492 40.1914 155.465 40.4219 154.301 40.4219ZM154.113 32.4766C153.277 33.0312 152.723 33.5195 152.449 33.9414C152.183 34.3633 152.051 34.8281 152.051 35.3359C152.051 35.9062 152.281 36.4297 152.742 36.9062C153.211 37.3828 153.808 37.6211 154.535 37.6211C155.082 37.6211 155.598 37.4961 156.082 37.2461C156.574 36.9883 156.973 36.7031 157.277 36.3906L154.113 32.4766ZM153.891 26.6758C153.891 26.9883 154 27.3164 154.219 27.6602C154.359 27.8867 154.664 28.2891 155.133 28.8672C155.601 28.5391 155.937 28.2617 156.141 28.0352C156.531 27.6133 156.726 27.1562 156.726 26.6641C156.726 26.3047 156.609 25.9844 156.375 25.7031C156.141 25.4219 155.785 25.2812 155.308 25.2812C155.012 25.2812 154.734 25.3633 154.476 25.5273C154.086 25.7695 153.891 26.1523 153.891 26.6758ZM34.0469 65.3438V54.7266H37.7148V65.3438C37.7148 67.1797 37.4297 68.6094 36.8594 69.6328C35.7969 71.5078 33.7695 72.4453 30.7773 72.4453C27.7852 72.4453 25.7539 71.5078 24.6836 69.6328C24.1133 68.6094 23.8281 67.1797 23.8281 65.3438V54.7266H27.4961V65.3438C27.4961 66.5312 27.6367 67.3984 27.918 67.9453C28.3555 68.9141 29.3086 69.3984 30.7773 69.3984C32.2383 69.3984 33.1875 68.9141 33.625 67.9453C33.9062 67.3984 34.0469 66.5312 34.0469 65.3438ZM55.1389 72H51.5295L44.4748 59.7305V72H41.1115V54.7266H44.8967L51.7756 66.7852V54.7266H55.1389V72ZM58.5121 54.7266H62.1215V68.8945H70.6762V72H58.5121V54.7266ZM80.8229 72.4805C78.3541 72.4805 76.4674 71.8086 75.1627 70.4648C73.4127 68.8164 72.5377 66.4414 72.5377 63.3398C72.5377 60.1758 73.4127 57.8008 75.1627 56.2148C76.4674 54.8711 78.3541 54.1992 80.8229 54.1992C83.2916 54.1992 85.1783 54.8711 86.483 56.2148C88.2252 57.8008 89.0963 60.1758 89.0963 63.3398C89.0963 66.4414 88.2252 68.8164 86.483 70.4648C85.1783 71.8086 83.2916 72.4805 80.8229 72.4805ZM84.233 67.8398C85.069 66.7852 85.4869 65.2852 85.4869 63.3398C85.4869 61.4023 85.0651 59.9062 84.2213 58.8516C83.3854 57.7891 82.2526 57.2578 80.8229 57.2578C79.3932 57.2578 78.2526 57.7852 77.401 58.8398C76.5494 59.8945 76.1237 61.3945 76.1237 63.3398C76.1237 65.2852 76.5494 66.7852 77.401 67.8398C78.2526 68.8945 79.3932 69.4219 80.8229 69.4219C82.2526 69.4219 83.3893 68.8945 84.233 67.8398ZM101.973 68.4492H95.6102L94.4149 72H90.6414L96.8055 54.7266H100.884L107.001 72H103.087L101.973 68.4492ZM100.966 65.4727L98.8094 58.6758L96.5828 65.4727H100.966ZM116.644 72H109.202V54.7266H116.644C117.714 54.7422 118.605 54.8672 119.315 55.1016C120.526 55.5 121.507 56.2305 122.257 57.293C122.858 58.1523 123.269 59.082 123.487 60.082C123.706 61.082 123.815 62.0352 123.815 62.9414C123.815 65.2383 123.355 67.1836 122.433 68.7773C121.183 70.9258 119.253 72 116.644 72ZM119.327 59.1328C118.772 58.1953 117.675 57.7266 116.034 57.7266H112.706V69H116.034C117.737 69 118.925 68.1602 119.597 66.4805C119.964 65.5586 120.147 64.4609 120.147 63.1875C120.147 61.4297 119.874 60.0781 119.327 59.1328ZM126.263 54.7266H129.849V72H126.263V54.7266ZM147.191 72H143.581L136.527 59.7305V72H133.164V54.7266H136.949L143.828 66.7852V54.7266H147.191V72ZM161.158 71.5781C160.205 72.1641 159.033 72.457 157.642 72.457C155.353 72.457 153.478 71.6641 152.017 70.0781C150.494 68.4844 149.732 66.3047 149.732 63.5391C149.732 60.7422 150.502 58.5 152.041 56.8125C153.58 55.125 155.615 54.2812 158.146 54.2812C160.341 54.2812 162.103 54.8398 163.431 55.957C164.767 57.0664 165.533 58.4531 165.728 60.1172H162.177C161.904 58.9375 161.236 58.1133 160.174 57.6445C159.58 57.3867 158.92 57.2578 158.193 57.2578C156.802 57.2578 155.658 57.7852 154.759 58.8398C153.869 59.8867 153.424 61.4648 153.424 63.5742C153.424 65.6992 153.908 67.2031 154.877 68.0859C155.845 68.9688 156.947 69.4102 158.181 69.4102C159.392 69.4102 160.384 69.0625 161.158 68.3672C161.931 67.6641 162.408 66.7461 162.588 65.6133H158.591V62.7305H165.787V72H163.396L163.033 69.8438C162.338 70.6641 161.713 71.2422 161.158 71.5781Z" fill="#01096E"/>
<rect y="96" width="96" height="6" rx="3" transform="rotate(-90 0 96)" fill="#01096E"/>
</svg>
