<svg width="121" height="96" viewBox="0 0 121 96" fill="none" xmlns="http://www.w3.org/2000/svg">
<path d="M31.4688 40.4805C29 40.4805 27.1133 39.8086 25.8086 38.4648C24.0586 36.8164 23.1836 34.4414 23.1836 31.3398C23.1836 28.1758 24.0586 25.8008 25.8086 24.2148C27.1133 22.8711 29 22.1992 31.4688 22.1992C33.9375 22.1992 35.8242 22.8711 37.1289 24.2148C38.8711 25.8008 39.7422 28.1758 39.7422 31.3398C39.7422 34.4414 38.8711 36.8164 37.1289 38.4648C35.8242 39.8086 33.9375 40.4805 31.4688 40.4805ZM34.8789 35.8398C35.7148 34.7852 36.1328 33.2852 36.1328 31.3398C36.1328 29.4023 35.7109 27.9062 34.8672 26.8516C34.0312 25.7891 32.8984 25.2578 31.4688 25.2578C30.0391 25.2578 28.8984 25.7852 28.0469 26.8398C27.1953 27.8945 26.7695 29.3945 26.7695 31.3398C26.7695 33.2852 27.1953 34.7852 28.0469 35.8398C28.8984 36.8945 30.0391 37.4219 31.4688 37.4219C32.8984 37.4219 34.0352 36.8945 34.8789 35.8398ZM56.4748 40H52.8654L45.8107 27.7305V40H42.4475V22.7266H46.2326L53.1115 34.7852V22.7266H56.4748V40ZM66.1176 37.5039C66.9692 37.5039 67.6606 37.4102 68.1918 37.2227C69.1996 36.8633 69.7035 36.1953 69.7035 35.2188C69.7035 34.6484 69.4535 34.207 68.9535 33.8945C68.4535 33.5898 67.6684 33.3203 66.5981 33.0859L64.7699 32.6758C62.9731 32.2695 61.7309 31.8281 61.0434 31.3516C59.8793 30.5547 59.2973 29.3086 59.2973 27.6133C59.2973 26.0664 59.8598 24.7812 60.9848 23.7578C62.1098 22.7344 63.7621 22.2227 65.9418 22.2227C67.7621 22.2227 69.3129 22.707 70.5942 23.6758C71.8832 24.6367 72.559 26.0352 72.6215 27.8711H69.1527C69.0902 26.832 68.6371 26.0938 67.7934 25.6562C67.2309 25.3672 66.5317 25.2227 65.6957 25.2227C64.766 25.2227 64.0238 25.4102 63.4692 25.7852C62.9145 26.1602 62.6371 26.6836 62.6371 27.3555C62.6371 27.9727 62.9106 28.4336 63.4574 28.7383C63.809 28.9414 64.559 29.1797 65.7074 29.4531L68.684 30.168C69.9887 30.4805 70.9731 30.8984 71.6371 31.4219C72.6684 32.2344 73.184 33.4102 73.184 34.9492C73.184 36.5273 72.5785 37.8398 71.3676 38.8867C70.1645 39.9258 68.4613 40.4453 66.2582 40.4453C64.0082 40.4453 62.2387 39.9336 60.9496 38.9102C59.6606 37.8789 59.016 36.4648 59.016 34.668H62.4613C62.5707 35.457 62.7856 36.0469 63.1059 36.4375C63.6918 37.1484 64.6957 37.5039 66.1176 37.5039ZM75.5729 22.7266H79.1588V40H75.5729V22.7266ZM95.0828 22.7266V25.7852H89.9149V40H86.2821V25.7852H81.0907V22.7266H95.0828ZM109.226 32.4531H100.835V36.8945H110.397V40H97.3077V22.7266H109.976V25.7852H100.835V29.4531H109.226V32.4531ZM30.0977 69.5039C30.9492 69.5039 31.6406 69.4102 32.1719 69.2227C33.1797 68.8633 33.6836 68.1953 33.6836 67.2188C33.6836 66.6484 33.4336 66.207 32.9336 65.8945C32.4336 65.5898 31.6484 65.3203 30.5781 65.0859L28.75 64.6758C26.9531 64.2695 25.7109 63.8281 25.0234 63.3516C23.8594 62.5547 23.2773 61.3086 23.2773 59.6133C23.2773 58.0664 23.8398 56.7812 24.9648 55.7578C26.0898 54.7344 27.7422 54.2227 29.9219 54.2227C31.7422 54.2227 33.293 54.707 34.5742 55.6758C35.8633 56.6367 36.5391 58.0352 36.6016 59.8711H33.1328C33.0703 58.832 32.6172 58.0938 31.7734 57.6562C31.2109 57.3672 30.5117 57.2227 29.6758 57.2227C28.7461 57.2227 28.0039 57.4102 27.4492 57.7852C26.8945 58.1602 26.6172 58.6836 26.6172 59.3555C26.6172 59.9727 26.8906 60.4336 27.4375 60.7383C27.7891 60.9414 28.5391 61.1797 29.6875 61.4531L32.6641 62.168C33.9688 62.4805 34.9531 62.8984 35.6172 63.4219C36.6484 64.2344 37.1641 65.4102 37.1641 66.9492C37.1641 68.5273 36.5586 69.8398 35.3477 70.8867C34.1445 71.9258 32.4414 72.4453 30.2383 72.4453C27.9883 72.4453 26.2188 71.9336 24.9297 70.9102C23.6406 69.8789 22.9961 68.4648 22.9961 66.668H26.4414C26.5508 67.457 26.7656 68.0469 27.0859 68.4375C27.6719 69.1484 28.6758 69.5039 30.0977 69.5039ZM50.0529 65.3438V54.7266H53.7209V65.3438C53.7209 67.1797 53.4357 68.6094 52.8654 69.6328C51.8029 71.5078 49.7756 72.4453 46.7834 72.4453C43.7912 72.4453 41.76 71.5078 40.6897 69.6328C40.1193 68.6094 39.8342 67.1797 39.8342 65.3438V54.7266H43.5022V65.3438C43.5022 66.5312 43.6428 67.3984 43.924 67.9453C44.3615 68.9141 45.3147 69.3984 46.7834 69.3984C48.2443 69.3984 49.1936 68.9141 49.6311 67.9453C49.9123 67.3984 50.0529 66.5312 50.0529 65.3438ZM64.5121 65.2266H60.7856V72H57.2582V54.7266H65.7309C66.9418 54.75 67.8715 54.8984 68.5199 55.1719C69.1762 55.4453 69.7309 55.8477 70.184 56.3789C70.559 56.8164 70.8559 57.3008 71.0746 57.832C71.2934 58.3633 71.4027 58.9688 71.4027 59.6484C71.4027 60.4688 71.1957 61.2773 70.7817 62.0742C70.3676 62.8633 69.684 63.4219 68.7309 63.75C69.5277 64.0703 70.0902 64.5273 70.4184 65.1211C70.7543 65.707 70.9223 66.6055 70.9223 67.8164V68.9766C70.9223 69.7656 70.9535 70.3008 71.016 70.582C71.1098 71.0273 71.3285 71.3555 71.6723 71.5664V72H67.6996C67.5902 71.6172 67.5121 71.3086 67.4652 71.0742C67.3715 70.5898 67.3207 70.0938 67.3129 69.5859L67.2895 67.9805C67.2738 66.8789 67.0707 66.1445 66.6801 65.7773C66.2973 65.4102 65.5746 65.2266 64.5121 65.2266ZM66.7035 62.0859C67.4223 61.7578 67.7817 61.1094 67.7817 60.1406C67.7817 59.0938 67.434 58.3906 66.7387 58.0312C66.3481 57.8281 65.7621 57.7266 64.9809 57.7266H60.7856V62.3672H64.8754C65.6879 62.3672 66.2973 62.2734 66.7035 62.0859ZM72.819 54.7266H76.6744L80.4244 67.8398L84.2096 54.7266H87.9596L82.0651 72H78.6549L72.819 54.7266ZM102.126 64.4531H93.7352V68.8945H103.298V72H90.2078V54.7266H102.876V57.7852H93.7352V61.4531H102.126V64.4531ZM120.054 54.7266L114.276 65.5078V72H110.667V65.5078L104.69 54.7266H108.944L112.53 62.25L115.964 54.7266H120.054Z" fill="#01096E"/>
<rect y="96" width="96" height="6" rx="3" transform="rotate(-90 0 96)" fill="#01096E"/>
</svg>
