<svg width="178" height="96" viewBox="0 0 178 96" fill="none" xmlns="http://www.w3.org/2000/svg">
<path d="M31.1641 17.7891H27.4961V24H23.9102V6.72656H31.4336C33.168 6.72656 34.5508 7.17188 35.582 8.0625C36.6133 8.95312 37.1289 10.332 37.1289 12.1992C37.1289 14.2383 36.6133 15.6797 35.582 16.5234C34.5508 17.3672 33.0781 17.7891 31.1641 17.7891ZM32.8516 14.1914C33.3203 13.7773 33.5547 13.1211 33.5547 12.2227C33.5547 11.3242 33.3164 10.6836 32.8398 10.3008C32.3711 9.91797 31.7109 9.72656 30.8594 9.72656H27.4961V14.8125H30.8594C31.7109 14.8125 32.375 14.6055 32.8516 14.1914ZM48.1662 20.4492H41.8029L40.6076 24H36.8342L42.9983 6.72656H47.0764L53.1936 24H49.2795L48.1662 20.4492ZM47.1584 17.4727L45.0022 10.6758L42.7756 17.4727H47.1584ZM67.5824 22.7109C66.2934 23.8906 64.6449 24.4805 62.6371 24.4805C60.1528 24.4805 58.1996 23.6836 56.7778 22.0898C55.3559 20.4883 54.6449 18.293 54.6449 15.5039C54.6449 12.4883 55.4535 10.1641 57.0707 8.53125C58.477 7.10938 60.266 6.39844 62.4379 6.39844C65.3442 6.39844 67.4692 7.35156 68.8129 9.25781C69.5551 10.3281 69.9535 11.4023 70.0082 12.4805H66.3988C66.1645 11.6523 65.8637 11.0273 65.4965 10.6055C64.8403 9.85547 63.8676 9.48047 62.5785 9.48047C61.266 9.48047 60.2309 10.0117 59.4731 11.0742C58.7153 12.1289 58.3363 13.625 58.3363 15.5625C58.3363 17.5 58.7348 18.9531 59.5317 19.9219C60.3363 20.8828 61.3559 21.3633 62.5903 21.3633C63.8559 21.3633 64.8207 20.9492 65.4848 20.1211C65.852 19.6758 66.1567 19.0078 66.3988 18.1172H69.9731C69.6606 20 68.8637 21.5312 67.5824 22.7109ZM88.0416 24H83.401L78.069 16.4531L76.3463 18.2227V24H72.7955V6.72656H76.3463V13.8398L83.0143 6.72656H87.6783L80.6002 13.8398L88.0416 24ZM89.7977 6.72656H93.3836V24H89.7977V6.72656ZM110.726 24H107.116L100.062 11.7305V24H96.6983V6.72656H100.483L107.362 18.7852V6.72656H110.726V24ZM124.693 23.5781C123.74 24.1641 122.568 24.457 121.177 24.457C118.888 24.457 117.013 23.6641 115.552 22.0781C114.029 20.4844 113.267 18.3047 113.267 15.5391C113.267 12.7422 114.036 10.5 115.575 8.8125C117.115 7.125 119.15 6.28125 121.681 6.28125C123.876 6.28125 125.638 6.83984 126.966 7.95703C128.302 9.06641 129.068 10.4531 129.263 12.1172H125.712C125.439 10.9375 124.771 10.1133 123.708 9.64453C123.115 9.38672 122.454 9.25781 121.728 9.25781C120.337 9.25781 119.193 9.78516 118.294 10.8398C117.404 11.8867 116.958 13.4648 116.958 15.5742C116.958 17.6992 117.443 19.2031 118.411 20.0859C119.38 20.9688 120.482 21.4102 121.716 21.4102C122.927 21.4102 123.919 21.0625 124.693 20.3672C125.466 19.6641 125.943 18.7461 126.122 17.6133H122.126V14.7305H129.322V24H126.931L126.568 21.8438C125.872 22.6641 125.247 23.2422 124.693 23.5781ZM33.4961 52.4492H27.1328L25.9375 56H22.1641L28.3281 38.7266H32.4062L38.5234 56H34.6094L33.4961 52.4492ZM32.4883 49.4727L30.332 42.6758L28.1055 49.4727H32.4883ZM54.6936 56H51.0842L44.0295 43.7305V56H40.6662V38.7266H44.4514L51.3303 50.7852V38.7266H54.6936V56ZM65.5082 56H58.0668V38.7266H65.5082C66.5785 38.7422 67.4692 38.8672 68.1801 39.1016C69.391 39.5 70.3715 40.2305 71.1215 41.293C71.7231 42.1523 72.1332 43.082 72.352 44.082C72.5707 45.082 72.6801 46.0352 72.6801 46.9414C72.6801 49.2383 72.2192 51.1836 71.2973 52.7773C70.0473 54.9258 68.1176 56 65.5082 56ZM68.1918 43.1328C67.6371 42.1953 66.5395 41.7266 64.8988 41.7266H61.5707V53H64.8988C66.602 53 67.7895 52.1602 68.4613 50.4805C68.8285 49.5586 69.0121 48.4609 69.0121 47.1875C69.0121 45.4297 68.7387 44.0781 68.1918 43.1328ZM23.8281 70.7266H27.4375V84.8945H35.9922V88H23.8281V70.7266ZM46.1389 88.4805C43.6701 88.4805 41.7834 87.8086 40.4787 86.4648C38.7287 84.8164 37.8537 82.4414 37.8537 79.3398C37.8537 76.1758 38.7287 73.8008 40.4787 72.2148C41.7834 70.8711 43.6701 70.1992 46.1389 70.1992C48.6076 70.1992 50.4943 70.8711 51.799 72.2148C53.5412 73.8008 54.4123 76.1758 54.4123 79.3398C54.4123 82.4414 53.5412 84.8164 51.799 86.4648C50.4943 87.8086 48.6076 88.4805 46.1389 88.4805ZM49.549 83.8398C50.385 82.7852 50.8029 81.2852 50.8029 79.3398C50.8029 77.4023 50.3811 75.9062 49.5373 74.8516C48.7014 73.7891 47.5686 73.2578 46.1389 73.2578C44.7092 73.2578 43.5686 73.7852 42.717 74.8398C41.8654 75.8945 41.4397 77.3945 41.4397 79.3398C41.4397 81.2852 41.8654 82.7852 42.717 83.8398C43.5686 84.8945 44.7092 85.4219 46.1389 85.4219C47.5686 85.4219 48.7053 84.8945 49.549 83.8398ZM67.2895 84.4492H60.9262L59.7309 88H55.9574L62.1215 70.7266H66.1996L72.3168 88H68.4027L67.2895 84.4492ZM66.2817 81.4727L64.1254 74.6758L61.8988 81.4727H66.2817ZM81.9596 88H74.5182V70.7266H81.9596C83.0299 70.7422 83.9205 70.8672 84.6315 71.1016C85.8424 71.5 86.8229 72.2305 87.5729 73.293C88.1744 74.1523 88.5846 75.082 88.8033 76.082C89.0221 77.082 89.1315 78.0352 89.1315 78.9414C89.1315 81.2383 88.6705 83.1836 87.7487 84.7773C86.4987 86.9258 84.569 88 81.9596 88ZM84.6432 75.1328C84.0885 74.1953 82.9908 73.7266 81.3502 73.7266H78.0221V85H81.3502C83.0533 85 84.2408 84.1602 84.9127 82.4805C85.2799 81.5586 85.4635 80.4609 85.4635 79.1875C85.4635 77.4297 85.1901 76.0781 84.6432 75.1328ZM91.5789 70.7266H95.1649V88H91.5789V70.7266ZM112.507 88H108.897L101.843 75.7305V88H98.4795V70.7266H102.265L109.144 82.7852V70.7266H112.507V88ZM126.474 87.5781C125.521 88.1641 124.349 88.457 122.958 88.457C120.669 88.457 118.794 87.6641 117.333 86.0781C115.81 84.4844 115.048 82.3047 115.048 79.5391C115.048 76.7422 115.818 74.5 117.357 72.8125C118.896 71.125 120.931 70.2812 123.462 70.2812C125.657 70.2812 127.419 70.8398 128.747 71.957C130.083 73.0664 130.849 74.4531 131.044 76.1172H127.493C127.22 74.9375 126.552 74.1133 125.49 73.6445C124.896 73.3867 124.236 73.2578 123.509 73.2578C122.118 73.2578 120.974 73.7852 120.075 74.8398C119.185 75.8867 118.74 77.4648 118.74 79.5742C118.74 81.6992 119.224 83.2031 120.193 84.0859C121.161 84.9688 122.263 85.4102 123.497 85.4102C124.708 85.4102 125.7 85.0625 126.474 84.3672C127.247 83.6641 127.724 82.7461 127.904 81.6133H123.907V78.7305H131.103V88H128.712L128.349 85.8438C127.654 86.6641 127.029 87.2422 126.474 87.5781Z" fill="#01096E"/>
<rect y="96" width="96" height="6" rx="3" transform="rotate(-90 0 96)" fill="#01096E"/>
</svg>
