<svg width="163" height="96" viewBox="0 0 163 96" fill="none" xmlns="http://www.w3.org/2000/svg">
<path d="M34.2109 56.0938C33.4375 56.3516 32.5117 56.4805 31.4336 56.4805C29.1836 56.4805 27.3242 55.8086 25.8555 54.4648C24.0742 52.8477 23.1836 50.4727 23.1836 47.3398C23.1836 44.1836 24.0977 41.7969 25.9258 40.1797C27.418 38.8594 29.2734 38.1992 31.4922 38.1992C33.7266 38.1992 35.6016 38.8984 37.1172 40.2969C38.8672 41.9141 39.7422 44.1758 39.7422 47.082C39.7422 48.6211 39.5547 49.9102 39.1797 50.9492C38.875 51.9414 38.4258 52.7656 37.832 53.4219L39.8242 55.2852L37.9375 57.2539L35.8516 55.2852C35.2188 55.668 34.6719 55.9375 34.2109 56.0938ZM33.4375 52.9766L31.6914 51.3125L33.5547 49.3672L35.3008 51.0312C35.5742 50.4688 35.7656 49.9766 35.875 49.5547C36.0469 48.9219 36.1328 48.1836 36.1328 47.3398C36.1328 45.4023 35.7344 43.9062 34.9375 42.8516C34.1484 41.7891 32.9922 41.2578 31.4688 41.2578C30.0391 41.2578 28.8984 41.7656 28.0469 42.7812C27.1953 43.7969 26.7695 45.3164 26.7695 47.3398C26.7695 49.707 27.3789 51.4023 28.5977 52.4258C29.3867 53.0898 30.332 53.4219 31.4336 53.4219C31.8477 53.4219 32.2461 53.3711 32.6289 53.2695C32.8398 53.2148 33.1094 53.1172 33.4375 52.9766ZM52.7248 49.3438V38.7266H56.3928V49.3438C56.3928 51.1797 56.1076 52.6094 55.5373 53.6328C54.4748 55.5078 52.4475 56.4453 49.4553 56.4453C46.4631 56.4453 44.4318 55.5078 43.3615 53.6328C42.7912 52.6094 42.5061 51.1797 42.5061 49.3438V38.7266H46.174V49.3438C46.174 50.5312 46.3147 51.3984 46.5959 51.9453C47.0334 52.9141 47.9865 53.3984 49.4553 53.3984C50.9162 53.3984 51.8654 52.9141 52.3029 51.9453C52.5842 51.3984 52.7248 50.5312 52.7248 49.3438ZM67.4887 56.4805C65.0199 56.4805 63.1332 55.8086 61.8285 54.4648C60.0785 52.8164 59.2035 50.4414 59.2035 47.3398C59.2035 44.1758 60.0785 41.8008 61.8285 40.2148C63.1332 38.8711 65.0199 38.1992 67.4887 38.1992C69.9574 38.1992 71.8442 38.8711 73.1488 40.2148C74.891 41.8008 75.7621 44.1758 75.7621 47.3398C75.7621 50.4414 74.891 52.8164 73.1488 54.4648C71.8442 55.8086 69.9574 56.4805 67.4887 56.4805ZM70.8988 51.8398C71.7348 50.7852 72.1527 49.2852 72.1527 47.3398C72.1527 45.4023 71.7309 43.9062 70.8871 42.8516C70.0512 41.7891 68.9184 41.2578 67.4887 41.2578C66.059 41.2578 64.9184 41.7852 64.0668 42.8398C63.2152 43.8945 62.7895 45.3945 62.7895 47.3398C62.7895 49.2852 63.2152 50.7852 64.0668 51.8398C64.9184 52.8945 66.059 53.4219 67.4887 53.4219C68.9184 53.4219 70.0551 52.8945 70.8988 51.8398ZM91.0768 38.7266V41.7852H85.9088V56H82.276V41.7852H77.0846V38.7266H91.0768ZM101.528 52.4492H95.1649L93.9696 56H90.1961L96.3602 38.7266H100.438L106.555 56H102.641L101.528 52.4492ZM100.52 49.4727L98.3641 42.6758L96.1375 49.4727H100.52ZM119.526 38.7266V41.7852H114.358V56H110.726V41.7852H105.534V38.7266H119.526ZM121.365 38.7266H124.95V56H121.365V38.7266ZM135.964 56.4805C133.496 56.4805 131.609 55.8086 130.304 54.4648C128.554 52.8164 127.679 50.4414 127.679 47.3398C127.679 44.1758 128.554 41.8008 130.304 40.2148C131.609 38.8711 133.496 38.1992 135.964 38.1992C138.433 38.1992 140.32 38.8711 141.624 40.2148C143.367 41.8008 144.238 44.1758 144.238 47.3398C144.238 50.4414 143.367 52.8164 141.624 54.4648C140.32 55.8086 138.433 56.4805 135.964 56.4805ZM139.374 51.8398C140.21 50.7852 140.628 49.2852 140.628 47.3398C140.628 45.4023 140.206 43.9062 139.363 42.8516C138.527 41.7891 137.394 41.2578 135.964 41.2578C134.535 41.2578 133.394 41.7852 132.542 42.8398C131.691 43.8945 131.265 45.3945 131.265 47.3398C131.265 49.2852 131.691 50.7852 132.542 51.8398C133.394 52.8945 134.535 53.4219 135.964 53.4219C137.394 53.4219 138.531 52.8945 139.374 51.8398ZM160.97 56H157.361L150.306 43.7305V56H146.943V38.7266H150.728L157.607 50.7852V38.7266H160.97V56Z" fill="#01096E"/>
<rect y="96" width="96" height="6" rx="3" transform="rotate(-90 0 96)" fill="#01096E"/>
</svg>
