<?xml version="1.0" encoding="UTF-8"?><svg id="Layer_2" xmlns="http://www.w3.org/2000/svg" viewBox="0 0 272.21 333.71"><defs><style>.cls-1{fill:#fff;}.cls-2{fill:#221f20;}.cls-3{fill:#000070;}.cls-4{fill:#231f20;}</style></defs><g id="Layer_1-2"><path class="cls-2" d="m190.6,320c-.85-.33-1.74-.49-2.67-.49-1.15,0-2.12.17-2.89.51-.51.22-.97.48-1.42.75-.5-.37-1.05-.66-1.63-.86-.79-.26-1.61-.4-2.47-.4-1,0-1.97.13-2.89.4-.92.26-1.7.62-2.32,1.06-.37.26-.65.54-.86.85-.21.31-.31.71-.31,1.21v8.25c0,.84.21,1.42.62,1.73.41.31,1.06.47,1.96.47.44,0,.84-.03,1.22-.08.38-.06.66-.11.86-.16v-9.62c.16-.09.37-.19.63-.29s.56-.15.9-.15c.46,0,.84.12,1.16.37.32.25.48.64.48,1.19v6.55c0,.84.21,1.42.62,1.73s1.06.47,1.96.47c.44,0,.85-.03,1.22-.08.37-.06.66-.11.86-.16v-9.13c0-.12-.02-.24-.03-.36.18-.13.39-.25.64-.36.31-.14.64-.21.99-.21.48,0,.86.12,1.15.37.29.25.44.64.44,1.19v6.55c0,.84.21,1.42.62,1.73.41.31,1.06.47,1.96.47.44,0,.85-.03,1.22-.08.37-.06.66-.11.86-.16v-8.63c0-1.24-.27-2.23-.79-2.97-.53-.74-1.22-1.27-2.07-1.6Z"/><path class="cls-2" d="m208.16,320.39c-1.07-.58-2.33-.88-3.77-.88s-2.68.29-3.76.86c-1.08.58-1.92,1.39-2.52,2.45-.6,1.06-.9,2.31-.9,3.76s.3,2.75.89,3.81c.59,1.06,1.43,1.87,2.51,2.44,1.08.57,2.34.85,3.78.85s2.73-.29,3.8-.86c1.07-.58,1.9-1.39,2.49-2.45.59-1.06.89-2.32.89-3.78s-.3-2.67-.9-3.73c-.6-1.06-1.44-1.88-2.51-2.47Zm-1.99,8.76c-.42.59-1.01.89-1.78.89s-1.36-.29-1.78-.88-.63-1.44-.63-2.58.21-1.94.64-2.54c.43-.59,1.02-.89,1.77-.89s1.34.3,1.77.9c.43.6.64,1.44.64,2.52s-.21,1.97-.63,2.56Z"/><path class="cls-2" d="m227.15,320.06c-.44-.27-.98-.41-1.62-.41-.8,0-1.53.17-2.19.52-.31,1.57-.66,3.18-1.04,4.84s-.75,3.16-1.1,4.51h-.14c-.05-.26-.13-.58-.23-.96-.1-.38-.21-.82-.34-1.3-.13-.48-.27-.99-.41-1.52l-1.07-4.19c-.18-.73-.48-1.23-.9-1.49-.42-.26-.95-.4-1.59-.4-.51,0-.98.1-1.41.29-.43.19-.77.42-1.03.67.15.66.35,1.43.62,2.3.26.88.55,1.79.86,2.73.31.94.63,1.85.95,2.74.32.89.62,1.68.9,2.37.28.69.52,1.23.73,1.62.2.4.56.69,1.08.88.52.18,1.14.27,1.85.27.62,0,1.18-.07,1.69-.21.5-.14.87-.3,1.11-.48.27-.49.58-1.14.93-1.95.35-.8.7-1.68,1.06-2.62.36-.94.68-1.86.97-2.77.29-.9.53-1.71.71-2.43.18-.71.27-1.24.27-1.59,0-.68-.22-1.15-.66-1.43Z"/><path class="cls-2" d="m240.91,320.26c-.97-.5-2.1-.75-3.4-.75-.86,0-1.69.13-2.51.4-.81.26-1.55.67-2.21,1.22-.66.55-1.18,1.26-1.58,2.14-.39.88-.59,1.92-.59,3.12,0,1.63.33,2.98,1,4.06.67,1.08,1.57,1.89,2.71,2.43,1.14.54,2.43.81,3.85.81,1.02,0,1.93-.09,2.71-.27.79-.18,1.4-.47,1.85-.86.45-.39.67-.89.67-1.49,0-.37-.1-.71-.3-1.04-.2-.33-.45-.58-.74-.77-.42.24-.98.46-1.67.66-.69.2-1.43.3-2.19.3s-1.53-.16-2.18-.49c-.52-.27-.89-.71-1.11-1.31l6.8-1.02c.62-.09,1.11-.3,1.45-.63.35-.33.52-.8.52-1.43,0-1.13-.27-2.13-.82-3-.55-.87-1.31-1.55-2.28-2.06Zm-5.94,5.05c.08-.71.32-1.28.74-1.7.48-.47,1.09-.71,1.82-.71s1.21.18,1.54.55c.33.37.51.73.55,1.1l-4.65.76Z"/><path class="cls-2" d="m254.14,319.54c-.91,0-1.8.1-2.66.3-.86.2-1.61.49-2.25.88-.46.29-.83.64-1.11,1.03-.28.39-.42.85-.42,1.38v8.14c0,.84.21,1.42.62,1.73.41.31,1.06.47,1.96.47.44,0,.84-.03,1.22-.08.38-.06.66-.11.86-.16v-9.37c.38-.22.83-.38,1.34-.49.51-.11,1-.16,1.45-.16.31,0,.59,0,.85.03.26.02.48.05.66.08.13-.2.24-.44.33-.73.09-.28.14-.59.14-.92,0-1.41-1-2.11-2.99-2.11Z"/><path class="cls-2" d="m270.55,326.54c-.74-.7-1.99-1.26-3.74-1.66l-.85-.19c-.51-.11-.86-.23-1.04-.36-.18-.13-.27-.29-.27-.49,0-.29.17-.51.49-.64.33-.14.79-.21,1.4-.21.38,0,.82.05,1.32.14.49.09.96.2,1.38.33.43.13.74.26.95.38.24-.2.43-.46.59-.77.15-.31.23-.67.23-1.07,0-.58-.22-1.06-.66-1.44-.44-.37-1.03-.65-1.77-.82s-1.56-.26-2.45-.26c-1.79,0-3.24.38-4.36,1.15-1.12.77-1.67,1.84-1.67,3.21,0,1.22.39,2.17,1.18,2.85.79.68,1.96,1.17,3.54,1.48l.82.16c.51.09.88.21,1.1.36s.33.35.33.6c0,.6-.59.9-1.75.9-.9,0-1.69-.11-2.37-.34-.69-.23-1.29-.49-1.82-.78-.26.18-.48.43-.66.74-.18.31-.27.69-.27,1.12,0,.95.5,1.65,1.49,2.1s2.27.67,3.82.67c2.01,0,3.54-.39,4.59-1.18,1.05-.79,1.58-1.87,1.58-3.26,0-1.11-.37-2.02-1.11-2.73Z"/><path class="cls-3" d="m204.19,50.33c1.42,2.1,23.29,35.42,8.96,73.53.49,1.48.95,2.96,1.36,4.44.43,1.57.82,3.17,1.17,4.76.17.78.33,1.55.5,2.33.5,2.39.98,4.65,1.59,6.85,1.31,4.74,2.89,9.53,4.48,14.22,4.08-7.61,7.09-15.95,8.81-24.87,5.98-31.03-5.18-61.37-26.87-81.26Z"/><path class="cls-3" d="m239.4,50.19C222.31,24.94,196.41,7.86,166.47,2.09c-29.94-5.77-60.33.47-85.58,17.56-13.96,9.45-25.41,21.59-33.85,35.62l.63-.26c6.19-2.51,12.6-5.11,19.6-6.69,5.55-1.26,11.2-2.15,16.87-2.7,20.58-18.19,49.06-27.01,78.06-21.42,49.61,9.55,82.19,57.69,72.64,107.29-2.05,10.64-5.88,20.49-11.11,29.32,3.04,8.91,6.09,18.05,7.86,27.64,12.79-14.88,21.55-32.91,25.37-52.7,5.77-29.94-.47-60.33-17.56-85.58Z"/><path class="cls-3" d="m197.76,213.84c-.11-2.01.11-3.84.31-5.46.1-.83.19-1.61.23-2.31.09-1.69.19-3.39.29-5.08.17-2.82.34-5.73.44-8.56.05-1.4.08-2.9.08-4.47-19.86,14.58-45.5,21.19-71.55,16.17-46.59-8.97-78.17-51.98-73.92-98.27l-.5-.05-1.1-.21c-2.33-.29-4.71-.61-7.28-.99-1.25-.19-2.45-.42-3.62-.64-.56-.11-1.11-.21-1.67-.32l-2.64-.38c-.56-.05-1.05-.08-1.5-.08-.34,0-.65.01-.95.04-1.06.11-2.11.24-3.16.38-2.49,26.28,4.15,52.39,19.14,74.54,17.09,25.25,42.99,42.33,72.93,48.09,25.72,4.95,51.76,1.04,74.6-10.99-.06-.47-.11-.94-.14-1.42Z"/><path class="cls-3" d="m57.53,123.66c3.68,37.64,31.68,69.98,70.76,77.51,25.95,5,51.42-2.02,70.72-17.13-.16-3.67-.58-7.56-1.52-11.31-1.33-5.28-3.59-10.66-6.71-15.99l-.25-.35c-16.95,14.5-34.73,16.56-36.21,16.72,1.43-.36,18.87-5.1,34.14-20.05-.32-.48-.64-.96-.97-1.44l-1.67-2.29c-.98-1.3-1.91-2.49-2.81-3.56l-.5-.46-2.1-2.49-4.04-4.18-.59-.57-5-4.53-.63-.53c-1.01-.81-5.3-4.23-7.45-5.83-.21-.15-1.3-.91-1.3-.91-.51-.35-3.88-2.64-3.88-2.64-.52-.34-1.05-.67-1.57-1-4.47,4.02-10.18,6.96-16.17,9.08-16.11,5.75-34.29,5.7-35.77,5.71,1.25-.17,16.24-2.28,30.64-9.13-3.57-2.48-6.93-4.95-10.41-7.26-.01.86-.18,1.79-.62,2.76-.55,1.21-1.97,3.37-5.32,4.16-1.41.33-2.94.58-4.56.74-1.08.11-2.14.16-3.17.16-2.27,0-4.45-.27-6.47-.8-6.26-1.65-11.11-5.46-14.07-8.36-2.4-2.34-4.58-5.07-6.69-8.33l-.12-.18c-.31-.47-.62-.97-.94-1.47-9.66.37-18.49,2.19-25.13,4.03-.08,3.34.06,6.64.41,9.91Z"/><path class="cls-3" d="m15.33,91.74s2.71-3.32,10.3-6.1c0,0,1.74-.48,2.99-2.01s3.8-5.55,3.8-5.55l3.03-3.91,2.37-2.87.78-.99,1.89-2.05,1.65-1.54,1.6-1.31,1.1-.75.32-.27.82-.55.57-.33.92-.47,1.15-.54,1.28-.53,1.54-.59,2.04-.86,1.84-.71,2.34-.96,2.24-.77,1.47-.51.91-.3.81-.25,1.32-.43,1.29-.33,1.3-.34,1.21-.3,1.23-.25,1.2-.26,1.19-.28,1.09-.24.51-.09,1.04-.2.78-.12,1.12-.19,1.06-.14.73-.11.86-.12,2.07-.32,2.66-.25,1.95-.25,2.14-.14,3.09-.2,2.76-.11,1.8.02,1.54.04,2.07.09,1.12.05,1.09.07,1.2.1.95.14.85.08,1.07.13.9.14.66.11.73.08.96.14.72.16.88.17.55.11.9.16,1.1.25.85.15.66.12.47.07.29.02.37-.07.45-.19.49-.33,1.48-.95,1.46-.85,1.08-.54,3.35-1.7,2.19-.84,1.08-.43,1.19-.4,1.8-.58,1.69-.45.98-.24,2.21-.39,1.37-.17,1.07-.08.85-.08,1.27-.02,1.47.04,1.36.08,1.34.18,1.43.3,1.1.24,1.02.27,1.1.37,1.76.76,1.87.96,2.1,1.37.8.54-.03.44-.56.7-1.84,2.14-2.68,3.13-3.46,4.03-1.51,1.72-.3.46.64.22.99.34.67.31,1.15.55,1.3.63,1.38.73,1.71.94,4.75,2.57,3.55,2.03,4.01,2.48,1.88,1.22,1.52,1.02,1.87,1.32,3.85,2.88,2.64,2.07,2.15,1.76,2.81,2.44,1.83,1.71,3.45,3.49,1.72,1.83,2.14,2.51,1.73,2.14,1.89,2.42,1.82,2.57,1.74,2.65,2.1,3.47,1.44,2.58,1.05,2.02,1.21,2.24.09.49.53,1.1.85,1.98.63,1.66.94,2.56.91,2.62.77,2.67.4,1.52.55,2.22.53,2.51.52,2.32.95,4.19.92,3.53.38,1.09.46,1.54.41,1.28.48,1.73.67,2.07.79,2.29.78,2.33,1.77,5.24.99,2.8.64,2.01.54,1.55.96,2.87.69,2.27,1.04,3.68.3,1.31.66,2.29.49,2.14.31,1.22.47,2.18.32,1.6.42,2.31.17,1.5.28,1.8.11,1.13.16,1.22.14,2.01.11,1.59.04,1.15.06,1.4v2.74s-.01,2.66-.01,2.66l-.06,1.69-.09,1.04-.14,1.69-.11,1.57-.24,1.71-.27,1.66-.4,2.27-.55,2.45-.57,2.03-.51,1.31-.71,1.26-.52.49-.4.14-.31-.02-.37-.24-.22-.14-.14-.38.03-.63.17-1.29.26-1.16.2-1.09.16-.84.11-.92.15-1.35v-1.25s.04-1.21.04-1.21v-1.44s-.09-1.39-.09-1.39l-.17-2.09-.28-3.06-.12-1.31-.45-4.11-.27-1.66-.92-3.95-.49-1.37-.47-1.23-1.04-2.11-.47-.77-.36-.5-.39-.29-.44-.21-.59-.09-.76.14-.59.33-.38.35-.73.85-.51.88-.3.61-.71,1.77-.14.63-.12.69-.27,1.57-.05.94-.08,1.17-.09,2.27-.09,2.17-.14,1.92-.15,1.36-.22,1.33-.18,1.05-.55,2.06-.34.91-.29.7-1.03,1.74-.54.64-.43.35-.29.03-.5-.2-.73-.96-.22-.61-.34-.76-.39-1.28-.12-.89v-.76s.14-2.67.14-2.67l.16-1.83.15-1.22.26-3.83.07-1.58.12-1.91.11-1.63.23-5.25.1-2.39.02-1.44-.02-.96.02-1.29-.19-4.69-.2-2.59v-.96s-.22-.99-.22-.99l-.05-.77-.27-1.36-.06-.56-.76-3.94-1-3.51-1.37-3.84-.98-2.29-.86-2.16-.49-.98-.54-1.09-1.04-1.84-.62-1.17-1.52-2.13-.99-1.6-1.28-2.33-1.4-1.98-2.07-2.72-1.06-1.4-1.52-1.38-1.83-2.17-1.28-1.66-5.94-5.78-2.74-2.48-5.69-4.59-3.67-2.73-5.46-3.69-4.54-2.74-1.33-.83-2.86-1.66-3.21-1.66-5.19-2.5-2.91-1.35-7.57-3.01-4.88-1.58-6-2.03-3.51-.94-5.27-.76-2.82-.19-.45.03-.18.18-.03.25.05.39,1.34,3.45.74,2.39.63,2.33.51,1.57.49,1.8,1.08,2.94,1.29,3.16.89,1.95.57,1.18.27.47.02.32-.08.28-.18.15-.78.3-1.1.19-2.62.39-1.69.15-1.94-.09-2.3-.26-1.87-.44-2.15-.86-2.72-1.37-2.7-1.86-1.78-1.4-2.44-2.45-1.2-1.33-3.4-4.57-1.2-1.97-2.55-4.53-.65-1.62-.38.04-.87.28-1.58.29-1.76.14-2.51.07-4.24-.07h-1.93s-8.13-.24-8.13-.24l-8.44-.77-8.32-1.14-6.4-1.17-1.39-.22-1.34-.11-2.16-.07-1.18.1-1.38.15-2.19.28-2.8.36-4.08.3-2.19-.09-2.03-.24-1.31-.3-1.33-.58-.73-.51-.37-.33-.31-.34-.89-1.16-.14-.97.35-1.2.24-.42.2-.18.61-.52Z"/><path class="cls-3" d="m221.93,229.41c-.26,0-.58-.09-.92-.37-.37-.31-.41-.8-.41-1.15,0-.84.19-1.67.37-2.46l.09-.42c1.06-4.83.59-9.5.1-14.46-.07-.73-.15-1.46-.21-2.2-.38-4.17-1.17-9.53-3.85-13.98-.19-.31-.39-.62-.67-.81-.4-.27-1.01-.29-1.55-.03-.45.21-.87.59-1.31,1.19-2.12,2.85-2.2,6.44-2.29,9.91-.03,1.22-.06,2.49-.18,3.69-.37,3.69-.79,7.88-3.45,10.87-.18.21-.4.43-.72.53-.57.17-1.18-.14-1.67-.86-.83-1.21-1.31-2.75-1.4-4.56-.08-1.48.1-2.97.27-4.41.11-.89.22-1.82.26-2.72.09-1.68.19-3.36.29-5.04.17-2.85.34-5.8.44-8.7.2-5.99.19-13.84-1.72-21.42-1.7-6.75-4.73-13.57-9-20.26-5.27-8.26-12.49-16.19-21.44-23.56-8.55-7.05-18-13.06-28.07-17.86-5.11-2.44-10.42-4.58-15.77-6.36-.69-.23-1.38-.46-2.07-.7-4.4-1.49-8.94-3.04-13.54-3.33l-2.79-.18c-.21-.01-.43-.03-.55-.02.02.08.06.23.16.5l.26.67c.26.67.52,1.35.77,2.03.57,1.56,1.03,3.18,1.47,4.75.32,1.15.66,2.35,1.04,3.51.96,2.94,2.11,5.84,3.43,8.63.1.2.2.4.3.58.34.63.63,1.17.4,1.67-.15.34-.52.57-1.14.72-1.16.27-2.39.47-3.77.61-2.73.28-5.25.12-7.47-.47-3.87-1.02-7.9-3.44-11.35-6.82-2.07-2.02-3.97-4.4-5.83-7.28l-.13-.2c-1.53-2.37-3.25-5.04-4.29-7.72-.11.02-.22.05-.34.09l-.08.02c-2.69.72-5.52.65-8.27.58-.99-.03-2.01-.05-3-.04-3.97.05-8.12-.11-12.67-.5-4.16-.36-8.61-.9-14.01-1.7-1.11-.16-2.23-.38-3.32-.59-2.8-.54-5.7-1.1-8.57-.81-1.19.12-2.38.28-3.53.43-3.25.42-6.61.86-10.04.52-1.62-.16-3.66-.52-5.11-1.87-1.06-.99-1.49-2.07-1.27-3.22.69-3.7,8-7.12,12.29-8.82,1.87-.74,3.27-2.97,4.51-4.93.5-.8.98-1.55,1.46-2.18.35-.46.71-.93,1.07-1.4,4.23-5.54,9.02-11.83,15.56-14.47l1.25-.51c6.24-2.53,12.14-4.93,18.66-6.4,7.82-1.77,15.85-2.81,23.87-3.09,6.75-.24,13.72.51,21.92,2.33.35.06.84.06.96-.01l.55-.36c.53-.35,1.07-.7,1.62-1.03,1.78-1.07,3.65-2.05,5.56-2.92,2.68-1.21,5.35-2.16,7.95-2.82,3.25-.82,6.4-1.19,9.35-1.1,3.49.11,6.77.87,9.74,2.26.96.45,1.9.97,2.8,1.55.46.29.91.61,1.35.93l.15.11c.19.14.38.28.55.43.15.13.22.29.23.48.01.43-.4.84-.74,1.17-.09.09-.17.17-.23.23l-2.51,2.95c-.55.65-1.1,1.3-1.65,1.95-.88,1.03-1.76,2.06-2.65,3.09-.45.53-.91,1.05-1.36,1.57-.13.16-.28.31-.44.47-.21.22-.43.45-.61.68.4.1.76.22,1.13.38,2.25.98,4.42,2.17,6.52,3.31,1.06.58,2.15,1.17,3.24,1.73,3.84,2.07,7.61,4.36,11.22,6.81,7.57,5.12,14.09,10.55,19.39,16.12,10.61,11.16,18.24,24.43,22.06,38.4.4,1.46.76,2.95,1.09,4.44.16.76.32,1.51.48,2.27.5,2.39,1.02,4.86,1.69,7.26,1.65,5.97,3.69,11.93,5.66,17.7,4.25,12.46,8.65,25.34,9.38,38.96.19,3.51.19,7.01,0,10.4-.21,3.88-.67,7.28-1.38,10.39l-.06.25c-.96,4.3-1.99,6.59-3.16,6.99-.11.04-.24.06-.38.06Zm-6.26-36.65c.4,0,.78.11,1.09.32.38.26.62.63.84,1,2.74,4.56,3.54,10,3.93,14.23.07.73.14,1.46.21,2.19.48,4.78.97,9.72-.11,14.64l-.09.42c-.17.77-.35,1.56-.36,2.33,0,.36.06.58.2.7.35.29.59.26.74.2.65-.22,1.67-1.54,2.78-6.56l.06-.25c.71-3.07,1.16-6.44,1.37-10.29.19-3.37.19-6.85,0-10.34-.72-13.54-5.11-26.38-9.35-38.8-1.97-5.77-4.01-11.75-5.67-17.73-.67-2.42-1.2-4.9-1.7-7.3-.16-.76-.32-1.51-.48-2.27-.32-1.48-.69-2.96-1.08-4.41-3.79-13.87-11.37-27.06-21.92-38.15-5.27-5.54-11.76-10.94-19.29-16.04-3.59-2.43-7.35-4.71-11.17-6.77-1.09-.56-2.19-1.16-3.25-1.74-2.09-1.14-4.26-2.32-6.48-3.29-.45-.2-.91-.34-1.44-.44l-.41-.08.21-.36c.24-.41.59-.78.93-1.13.15-.15.29-.3.42-.45.46-.52.91-1.05,1.36-1.57.89-1.03,1.77-2.06,2.65-3.09.55-.65,1.1-1.3,1.65-1.95l2.51-2.95c.07-.08.16-.17.26-.27.2-.2.57-.56.56-.74,0,0,0-.03-.03-.05-.16-.14-.33-.27-.51-.4l-.15-.11c-.43-.32-.87-.62-1.31-.91-.88-.57-1.8-1.07-2.73-1.51-2.9-1.36-6.1-2.1-9.51-2.2-2.89-.09-5.99.27-9.19,1.09-2.57.65-5.21,1.59-7.85,2.79-1.89.86-3.75,1.83-5.5,2.89-.54.33-1.07.67-1.6,1.02l-.55.36c-.37.24-1.15.13-1.39.1-8.17-1.82-15.1-2.56-21.8-2.32-7.98.28-15.98,1.31-23.76,3.08-6.47,1.46-12.34,3.85-18.56,6.37l-1.25.51c-6.39,2.59-11.13,8.8-15.32,14.29-.36.47-.72.94-1.07,1.4-.47.61-.94,1.35-1.43,2.14-1.28,2.04-2.74,4.35-4.79,5.16-3.37,1.34-11.27,4.84-11.93,8.39-.18.95.18,1.83,1.09,2.68,1.32,1.23,3.24,1.57,4.77,1.72,3.37.34,6.54-.08,9.9-.52,1.16-.15,2.35-.31,3.55-.43,2.96-.3,5.9.27,8.74.82,1.08.21,2.2.43,3.3.59,5.39.8,9.83,1.34,13.98,1.69,4.53.39,8.66.55,12.61.5,1-.01,2.03.01,3.02.04,2.7.07,5.49.14,8.1-.56l.08-.02c.21-.06.42-.11.64-.14l.23-.03.08.22c1.01,2.7,2.77,5.43,4.32,7.84l.13.2c1.83,2.84,3.71,5.19,5.75,7.18,3.38,3.31,7.32,5.67,11.09,6.67,2.16.57,4.6.72,7.26.45,1.35-.14,2.56-.33,3.7-.6.42-.1.67-.23.75-.39.1-.23-.13-.68-.39-1.15-.1-.19-.21-.4-.31-.61-1.33-2.81-2.49-5.74-3.46-8.7-.38-1.17-.72-2.37-1.05-3.53-.44-1.56-.89-3.16-1.45-4.7-.25-.68-.51-1.35-.77-2.02l-.26-.67c-.19-.49-.3-.83-.12-1.08.18-.25.5-.23,1.07-.19l2.8.18c4.67.3,9.26,1.86,13.69,3.36.69.24,1.38.47,2.07.7,5.38,1.79,10.71,3.94,15.84,6.39,10.12,4.83,19.6,10.86,28.19,17.94,9,7.41,16.25,15.39,21.56,23.7,4.31,6.74,7.36,13.62,9.08,20.44,1.93,7.65,1.94,15.55,1.73,21.58-.1,2.91-.28,5.86-.44,8.71-.1,1.68-.2,3.36-.29,5.04-.05.93-.16,1.86-.27,2.76-.17,1.41-.34,2.87-.27,4.3.09,1.71.53,3.14,1.3,4.26.26.38.67.75,1.02.64.17-.05.32-.21.45-.36,2.53-2.85,2.94-6.94,3.3-10.54.12-1.18.15-2.44.18-3.65.08-3.56.17-7.24,2.4-10.24.5-.68.99-1.11,1.53-1.37.34-.16.7-.24,1.04-.24Z"/><path class="cls-3" d="m0,287.34c0-4.01.61-7.49,1.82-10.43,1.22-2.95,2.9-5.39,5.06-7.34,2.16-1.94,4.68-3.39,7.56-4.33,2.88-.94,6-1.41,9.34-1.41,1.21,0,2.4.11,3.55.32,1.15.21,2.1.47,2.83.77v-14.76c.61-.18,1.58-.38,2.92-.59,1.34-.21,2.7-.32,4.1-.32s2.54.09,3.6.27c1.06.18,1.96.55,2.69,1.09.73.55,1.28,1.29,1.64,2.23.36.94.55,2.17.55,3.69v43.2c0,2.86-1.34,5.13-4.01,6.84-1.76,1.16-4.04,2.17-6.84,3.05-2.8.88-6.01,1.32-9.66,1.32-3.95,0-7.49-.55-10.62-1.64-3.13-1.09-5.77-2.67-7.93-4.74-2.16-2.07-3.8-4.54-4.92-7.43-1.13-2.89-1.69-6.15-1.69-9.8Zm25.88-11.39c-3.28,0-5.8.94-7.56,2.83-1.76,1.88-2.64,4.74-2.64,8.57s.82,6.61,2.46,8.52c1.64,1.91,4.01,2.87,7.11,2.87,1.09,0,2.08-.17,2.96-.5.88-.33,1.56-.71,2.05-1.14v-20.05c-1.22-.73-2.67-1.09-4.37-1.09Z"/><path class="cls-3" d="m96.2,287.34c0,3.77-.58,7.12-1.73,10.07-1.15,2.95-2.78,5.42-4.88,7.43-2.1,2-4.6,3.52-7.52,4.56-2.92,1.03-6.17,1.55-9.75,1.55s-6.84-.55-9.75-1.64c-2.92-1.09-5.42-2.66-7.52-4.69-2.1-2.04-3.72-4.51-4.88-7.43-1.15-2.92-1.73-6.2-1.73-9.84s.58-6.84,1.73-9.75c1.15-2.92,2.78-5.39,4.88-7.43,2.1-2.04,4.6-3.6,7.52-4.69,2.92-1.09,6.17-1.64,9.75-1.64s6.84.56,9.75,1.69c2.92,1.13,5.42,2.7,7.52,4.74,2.1,2.04,3.72,4.51,4.88,7.43,1.15,2.92,1.73,6.14,1.73,9.66Zm-31.9,0c0,3.71.71,6.55,2.14,8.52,1.43,1.98,3.42,2.96,5.97,2.96s4.51-1,5.88-3.01c1.37-2.01,2.05-4.83,2.05-8.48s-.7-6.45-2.1-8.43c-1.4-1.97-3.37-2.96-5.92-2.96s-4.53.99-5.92,2.96c-1.4,1.98-2.1,4.78-2.1,8.43Z"/><path class="cls-3" d="m113.99,309.4c-.67.12-1.66.29-2.96.5-1.31.21-2.63.32-3.96.32s-2.54-.09-3.6-.27c-1.06-.18-1.96-.55-2.69-1.09-.73-.55-1.29-1.29-1.69-2.23-.4-.94-.59-2.17-.59-3.69v-52.86c.67-.12,1.65-.29,2.96-.5,1.31-.21,2.63-.32,3.96-.32s2.54.09,3.6.27c1.06.18,1.96.55,2.69,1.09.73.55,1.29,1.29,1.69,2.23.39.94.59,2.17.59,3.69v52.86Z"/><path class="cls-3" d="m136.77,263.83c3.65,0,7.03.47,10.16,1.41,3.13.94,5.82,2.38,8.07,4.33,2.25,1.95,4.01,4.39,5.29,7.34,1.28,2.95,1.91,6.46,1.91,10.53s-.55,7.29-1.64,10.21c-1.09,2.92-2.64,5.36-4.65,7.34-2.01,1.98-4.42,3.45-7.24,4.42-2.83.97-5.97,1.46-9.43,1.46-2.61,0-5.04-.4-7.29-1.18v15.13c-.61.18-1.58.38-2.92.59-1.34.21-2.7.32-4.1.32s-2.54-.09-3.6-.27c-1.06-.18-1.96-.55-2.69-1.09s-1.28-1.29-1.64-2.23c-.37-.94-.55-2.17-.55-3.69v-43.74c0-1.64.35-2.98,1.05-4.01.7-1.03,1.65-1.97,2.87-2.82,1.88-1.21,4.22-2.19,7.02-2.92,2.79-.73,5.92-1.09,9.39-1.09Zm.18,34.81c6.26,0,9.39-3.74,9.39-11.21,0-3.89-.77-6.77-2.32-8.66-1.55-1.88-3.78-2.83-6.7-2.83-1.16,0-2.19.14-3.1.41-.91.27-1.7.59-2.37.96v20.05c.73.36,1.52.67,2.37.91.85.24,1.76.36,2.73.36Z"/><path class="cls-3" d="m207.96,309.4c-.61.18-1.56.36-2.87.55-1.31.18-2.66.27-4.06.27s-2.54-.09-3.6-.27c-1.06-.18-1.96-.55-2.69-1.09-.73-.55-1.29-1.29-1.69-2.23-.4-.94-.59-2.17-.59-3.69v-20.23c0-2.49-.62-4.24-1.87-5.24-1.25-1-2.78-1.5-4.6-1.5-1.22,0-2.37.15-3.46.46-1.09.31-1.97.67-2.64,1.09v31.9c-.61.18-1.57.36-2.87.55-1.31.18-2.66.27-4.06.27s-2.54-.09-3.6-.27c-1.06-.18-1.96-.55-2.69-1.09s-1.29-1.29-1.69-2.23c-.4-.94-.59-2.17-.59-3.69v-52.86c.67-.12,1.65-.29,2.96-.5,1.31-.21,2.63-.32,3.96-.32s2.54.09,3.6.27c1.06.18,1.96.55,2.69,1.09.73.55,1.29,1.29,1.69,2.23.4.94.59,2.17.59,3.69v8.93c.79-.3,1.99-.65,3.6-1.05,1.61-.39,3.39-.59,5.33-.59,6.02,0,10.71,1.5,14.08,4.51,3.37,3.01,5.06,7.49,5.06,13.44v27.61Z"/><path class="cls-3" d="m209.88,252.9c0-2.31.77-4.25,2.32-5.83,1.55-1.58,3.6-2.37,6.15-2.37s4.6.79,6.15,2.37c1.55,1.58,2.32,3.52,2.32,5.83s-.77,4.25-2.32,5.83c-1.55,1.58-3.6,2.37-6.15,2.37s-4.6-.79-6.15-2.37c-1.55-1.58-2.32-3.52-2.32-5.83Zm16.22,56.5c-.67.12-1.66.29-2.96.5-1.31.21-2.63.32-3.96.32s-2.54-.09-3.6-.27c-1.06-.18-1.96-.55-2.69-1.09-.73-.55-1.29-1.29-1.69-2.23-.4-.94-.59-2.17-.59-3.69v-37.09c.67-.12,1.65-.29,2.96-.5,1.31-.21,2.63-.32,3.96-.32s2.54.09,3.6.27c1.06.18,1.96.55,2.69,1.09.73.55,1.29,1.29,1.69,2.23.39.94.59,2.17.59,3.69v37.09Z"/><path class="cls-3" d="m256.72,281.42c0-1.88-.53-3.27-1.59-4.15-1.06-.88-2.51-1.32-4.33-1.32-1.22,0-2.41.15-3.6.46-1.18.31-2.2.76-3.05,1.37v31.62c-.61.18-1.56.36-2.87.55-1.31.18-2.66.27-4.06.27s-2.54-.09-3.6-.27c-1.06-.18-1.96-.55-2.69-1.09-.73-.55-1.29-1.29-1.69-2.23-.4-.94-.59-2.17-.59-3.69v-27.34c0-1.64.35-2.98,1.05-4.01.7-1.03,1.65-1.97,2.87-2.83,2.07-1.46,4.66-2.64,7.79-3.55,3.13-.91,6.61-1.37,10.43-1.37,6.86,0,12.15,1.5,15.86,4.51,3.71,3.01,5.56,7.18,5.56,12.53v28.52c-.61.18-1.56.36-2.87.55-1.31.18-2.66.27-4.06.27s-2.54-.09-3.6-.27c-1.06-.18-1.96-.55-2.69-1.09-.73-.55-1.29-1.29-1.69-2.23-.4-.94-.59-2.17-.59-3.69v-21.51Z"/><path class="cls-1" d="m14.4,92.79c.37.09.16-.29.21-.29,7.74-.12,15.21-.4,22.89-1.5,1.4-.14,2.63-.13,4.01-.38,2.16-.39,3.92-1.21,5.62-2.57,6.71-5.37,16.23-6.91,23.84-2.5,3.23,1.87,5.83,4.62,8.08,7.57.5.65,4.85,7.59,5.35,7.42,0,0-2.89.96-4.59.81s-2.87.05-2.87.05l-3.54-.2-3.1.13-4.48-.16-1.93-.12-4.38-.31-5.48-.51-1.96-.38-5.19-.69-4.7-.83-5.69-.82-.98-.11-2.02.19-1.67.16-2.11.33-1.44.15-3.02.36-2.16.1-1.59-.02-1.08-.11-1.05-.16-1.18-.15-.93-.34-1.46-.72s-1.04-.97-1.04-.97c-.6-1.13-.62-1.78-.61-3.09,0-.09.1-.15.17-.2.02-.02.05-.17.08-.16Z"/><circle class="cls-4" cx="55.94" cy="83.07" r="2.99"/><circle class="cls-1" cx="55.42" cy="82.53" r=".81"/><path class="cls-1" d="m110.07,99.44c-2.39-3.67-4.77-7.35-7.34-10.9-.08-.11-.16-.23-.17-.36-.02-.33.39-.5.71-.56,1.41-.26,2.8-.18,4.22-.09,9.95.6,19.82,2.06,29.36,5.19,16.14,5.29,30.69,15.12,42.96,26.74,12.11,11.46,22.49,24.85,30.3,39.59,7.69,14.53,12.75,30.35,14.88,46.64.48,3.71,1.04,7.49.56,11.23-.21,1.65-.55,3.25-1.34,4.73-.08.15-.18.32-.34.39-.17.07-.37.03-.52-.08s-.25-.26-.34-.42c-.43-.8-.47-1.73-.56-2.61-.1-.98-.26-1.95-.35-2.93-.26-2.59-.31-5.18-.66-7.77-.37-2.73-1.02-5.39-1.58-8.08-.43-2.07-1.34-4.68-2.77-6.3-.44-.5-.77-.89-1.44-.93-1.26-.07-1.87.72-2.63,1.53,0,0-1.78,1.84-2.08,5.71-.3,3.86-.62,10.31-.82,11.22-.2.91-.75,3.28-.8,3.42s-.35,1.33-.79,2.08-.82,1.33-.82,1.33l-.66.74s-.25.18-.51.19-.89-.42-1.14-.84-1.04-2.73-1.02-3.02-.12-.42-.12-.42c0,0,.02-2.77.26-4.27.23-1.51.52-6.1.52-6.1l.42-7.14.2-7.43v-4.93s-.38-4.4-.38-4.4l-.38-3.46-1.33-6.1-2.08-6.33-2.05-4.78-4.45-8.09-6.97-9.54-7.52-7.78-5.9-5.33s-7.63-6.12-9.18-7.13-8.72-6.01-10.88-7.18c-2.16-1.18-15.66-7.89-24.32-11.02-8.66-3.13-17.65-4.61-18.75-4.33-1.1.27-1.41-.05-1.41-.05Z"/><path d="m15.05,92.95s-.02,0-.02,0h-.17s-.1-.18-.1-.18c-.05-.11-.03-.24.05-.36l.09-.12h.15c.21,0,20.71-.32,34.96-3.71.16-.04.55-.13.71.14.11.19.02.4-.1.54l-.06.07-.08.02c-12.05,3.22-34.61,3.59-35.41,3.59Z"/></g></svg>