<svg width="72" height="72" viewBox="0 0 72 72" fill="none" xmlns="http://www.w3.org/2000/svg">
<rect width="72" height="72" rx="16" fill="black"/>
<path d="M41.1334 14.7083C38.2712 14.7083 35.5263 15.8453 33.5025 17.8691C31.4787 19.8929 30.3417 22.6379 30.3417 25.5V31.5083H24.5667C24.2767 31.5083 24.0417 31.7434 24.0417 32.0333V39.9666C24.0417 40.2566 24.2767 40.4916 24.5667 40.4916H30.3417V56.7666C30.3417 57.0566 30.5767 57.2916 30.8667 57.2916H38.8C39.09 57.2916 39.325 57.0566 39.325 56.7666V40.4916H45.1512C45.3921 40.4916 45.6021 40.3277 45.6605 40.094L47.6438 32.1606C47.7267 31.8293 47.4761 31.5083 47.1345 31.5083H39.325V25.5C39.325 25.0204 39.5155 24.5604 39.8547 24.2213C40.1938 23.8822 40.6538 23.6916 41.1334 23.6916H47.2C47.49 23.6916 47.725 23.4566 47.725 23.1666V15.2333C47.725 14.9434 47.49 14.7083 47.2 14.7083H41.1334Z" fill="white"/>
</svg>
