<svg width="177" height="156" viewBox="0 0 177 156" fill="none" xmlns="http://www.w3.org/2000/svg">
<path d="M56.7656 50.0469H45.2188V55.3438H55.3281V59.3438H45.2188V69H40.4375V46H56.7656V50.0469ZM70.1857 69.6406C66.8941 69.6406 64.3785 68.7448 62.6389 66.9531C60.3055 64.7552 59.1389 61.5885 59.1389 57.4531C59.1389 53.2344 60.3055 50.0677 62.6389 47.9531C64.3785 46.1615 66.8941 45.2656 70.1857 45.2656C73.4774 45.2656 75.993 46.1615 77.7326 47.9531C80.0555 50.0677 81.217 53.2344 81.217 57.4531C81.217 61.5885 80.0555 64.7552 77.7326 66.9531C75.993 68.7448 73.4774 69.6406 70.1857 69.6406ZM74.7326 63.4531C75.8472 62.0469 76.4045 60.0469 76.4045 57.4531C76.4045 54.8698 75.842 52.875 74.717 51.4688C73.6024 50.0521 72.092 49.3438 70.1857 49.3438C68.2795 49.3438 66.7587 50.0469 65.6232 51.4531C64.4878 52.8594 63.9201 54.8594 63.9201 57.4531C63.9201 60.0469 64.4878 62.0469 65.6232 63.4531C66.7587 64.8594 68.2795 65.5625 70.1857 65.5625C72.092 65.5625 73.6076 64.8594 74.7326 63.4531ZM84.9027 45.9688H89.7152V64.8594H101.121V69H84.9027V45.9688ZM104.464 45.9688H109.276V64.8594H120.682V69H104.464V45.9688ZM134.212 69.6406C130.92 69.6406 128.404 68.7448 126.665 66.9531C124.332 64.7552 123.165 61.5885 123.165 57.4531C123.165 53.2344 124.332 50.0677 126.665 47.9531C128.404 46.1615 130.92 45.2656 134.212 45.2656C137.503 45.2656 140.019 46.1615 141.759 47.9531C144.082 50.0677 145.243 53.2344 145.243 57.4531C145.243 61.5885 144.082 64.7552 141.759 66.9531C140.019 68.7448 137.503 69.6406 134.212 69.6406ZM138.759 63.4531C139.873 62.0469 140.43 60.0469 140.43 57.4531C140.43 54.8698 139.868 52.875 138.743 51.4688C137.628 50.0521 136.118 49.3438 134.212 49.3438C132.305 49.3438 130.785 50.0469 129.649 51.4531C128.514 52.8594 127.946 54.8594 127.946 57.4531C127.946 60.0469 128.514 62.0469 129.649 63.4531C130.785 64.8594 132.305 65.5625 134.212 65.5625C136.118 65.5625 137.634 64.8594 138.759 63.4531ZM171.335 45.9688H176.226L169.741 69H165.147L162.366 55.5312L161.554 51.0781L160.741 55.5312L157.96 69H153.491L146.96 45.9688H152.069L155.116 59.1562L155.772 62.8281L156.444 59.2344L159.038 45.9688H164.116L166.851 59.1562L167.554 62.8281L168.257 59.2969L171.335 45.9688ZM54.0625 100.125V85.9688H58.9531V100.125C58.9531 102.573 58.5729 104.479 57.8125 105.844C56.3958 108.344 53.6927 109.594 49.7031 109.594C45.7135 109.594 43.0052 108.344 41.5781 105.844C40.8177 104.479 40.4375 102.573 40.4375 100.125V85.9688H45.3281V100.125C45.3281 101.708 45.5156 102.865 45.8906 103.594C46.474 104.885 47.7448 105.531 49.7031 105.531C51.651 105.531 52.9167 104.885 53.5 103.594C53.875 102.865 54.0625 101.708 54.0625 100.125ZM71.9201 105.672C73.0555 105.672 73.9774 105.547 74.6857 105.297C76.0295 104.818 76.7014 103.927 76.7014 102.625C76.7014 101.865 76.368 101.276 75.7014 100.859C75.0347 100.453 73.9878 100.094 72.5607 99.7812L70.1232 99.2344C67.7274 98.6927 66.0712 98.1042 65.1545 97.4688C63.6024 96.4062 62.8264 94.7448 62.8264 92.4844C62.8264 90.4219 63.5764 88.7083 65.0764 87.3438C66.5764 85.9792 68.7795 85.2969 71.6857 85.2969C74.1128 85.2969 76.1805 85.9427 77.8889 87.2344C79.6076 88.5156 80.5087 90.3802 80.592 92.8281H75.967C75.8837 91.4427 75.2795 90.4583 74.1545 89.875C73.4045 89.4896 72.4722 89.2969 71.3576 89.2969C70.118 89.2969 69.1285 89.5469 68.3889 90.0469C67.6493 90.5469 67.2795 91.2448 67.2795 92.1406C67.2795 92.9635 67.6441 93.5781 68.3732 93.9844C68.842 94.2552 69.842 94.5729 71.3732 94.9375L75.342 95.8906C77.0816 96.3073 78.3941 96.8646 79.2795 97.5625C80.6545 98.6458 81.342 100.214 81.342 102.266C81.342 104.37 80.5347 106.12 78.9201 107.516C77.316 108.901 75.0451 109.594 72.1076 109.594C69.1076 109.594 66.7482 108.911 65.0295 107.547C63.3107 106.172 62.4514 104.286 62.4514 101.891H67.0451C67.191 102.943 67.4774 103.729 67.9045 104.25C68.6857 105.198 70.0243 105.672 71.9201 105.672Z" fill="#01096E"/>
<rect y="156" width="156" height="6" rx="3" transform="rotate(-90 0 156)" fill="#01096E"/>
</svg>
