<svg width="72" height="72" viewBox="0 0 72 72" fill="none" xmlns="http://www.w3.org/2000/svg">
<rect width="72" height="72" rx="16" fill="black"/>
<path d="M36 28.4167C31.8118 28.4167 28.4166 31.8119 28.4166 36C28.4166 40.1882 31.8118 43.5834 36 43.5834C40.1881 43.5834 43.5833 40.1882 43.5833 36C43.5833 31.8119 40.1881 28.4167 36 28.4167Z" fill="white"/>
<path fill-rule="evenodd" clip-rule="evenodd" d="M23.7955 15.1901C31.8412 14.2909 40.1588 14.2909 48.2044 15.1901C52.634 15.6852 56.2068 19.1753 56.7267 23.6205C57.6887 31.8455 57.6887 40.1546 56.7267 48.3796C56.2068 52.8247 52.634 56.3148 48.2044 56.8099C40.1588 57.7091 31.8412 57.7091 23.7955 56.8099C19.3659 56.3148 15.7932 52.8247 15.2733 48.3796C14.3113 40.1546 14.3113 31.8455 15.2733 23.6205C15.7932 19.1753 19.3659 15.6852 23.7955 15.1901ZM47.6666 22C46.378 22 45.3333 23.0447 45.3333 24.3334C45.3333 25.622 46.378 26.6667 47.6666 26.6667C48.9553 26.6667 50 25.622 50 24.3334C50 23.0447 48.9553 22 47.6666 22ZM24.9166 36C24.9166 29.8789 29.8788 24.9167 36 24.9167C42.1211 24.9167 47.0833 29.8789 47.0833 36C47.0833 42.1212 42.1211 47.0834 36 47.0834C29.8788 47.0834 24.9166 42.1212 24.9166 36Z" fill="white"/>
</svg>
