<svg width="72" height="72" viewBox="0 0 72 72" fill="none" xmlns="http://www.w3.org/2000/svg">
<rect width="72" height="72" rx="16" fill="black"/>
<path d="M19.0833 12.375C16.3449 12.375 14.125 14.5949 14.125 17.3333C14.125 20.0717 16.3449 22.2917 19.0833 22.2917C21.8217 22.2917 24.0417 20.0717 24.0417 17.3333C24.0417 14.5949 21.8217 12.375 19.0833 12.375Z" fill="white"/>
<path d="M14.4167 26.375C14.2556 26.375 14.125 26.5056 14.125 26.6667V57C14.125 57.1611 14.2556 57.2917 14.4167 57.2917H23.75C23.9111 57.2917 24.0417 57.1611 24.0417 57V26.6667C24.0417 26.5056 23.9111 26.375 23.75 26.375H14.4167Z" fill="white"/>
<path d="M29.5833 26.375C29.4222 26.375 29.2917 26.5056 29.2917 26.6667V57C29.2917 57.1611 29.4222 57.2917 29.5833 57.2917H38.9167C39.0777 57.2917 39.2083 57.1611 39.2083 57V40.6667C39.2083 39.5063 39.6693 38.3935 40.4897 37.5731C41.3102 36.7526 42.423 36.2917 43.5833 36.2917C44.7437 36.2917 45.8565 36.7526 46.6769 37.5731C47.4974 38.3935 47.9583 39.5063 47.9583 40.6667V57C47.9583 57.1611 48.0889 57.2917 48.25 57.2917H57.5833C57.7444 57.2917 57.875 57.1611 57.875 57V36.8872C57.875 31.2248 52.9502 26.795 47.3163 27.3072C45.5788 27.4651 43.8609 27.8971 42.2568 28.5845L39.2083 29.891V26.6667C39.2083 26.5056 39.0777 26.375 38.9167 26.375H29.5833Z" fill="white"/>
</svg>
