<svg width="72" height="72" viewBox="0 0 72 72" fill="none" xmlns="http://www.w3.org/2000/svg">
<rect width="72" height="72" rx="16" fill="black"/>
<path d="M58.8894 22.5302C59.0246 22.3418 58.8249 22.0984 58.6086 22.1823C57.0716 22.778 55.4652 23.18 53.8267 23.3781C55.6511 22.2881 57.059 20.6289 57.8397 18.6646C57.9192 18.4645 57.7007 18.2858 57.5122 18.3899C55.8165 19.3263 53.9878 20.0006 52.0881 20.389C52.0086 20.4053 51.9266 20.3782 51.8708 20.3193C50.4452 18.815 48.5686 17.8135 46.5229 17.4674C44.4342 17.114 42.2873 17.4639 40.4188 18.4622C38.5504 19.4605 37.0662 21.0506 36.1989 22.9834C35.3743 24.821 35.1518 26.8695 35.5585 28.8367C35.59 28.9894 35.4706 29.1335 35.315 29.1238C31.6189 28.8943 28.0076 27.9112 24.7035 26.2337C21.4079 24.5606 18.4895 22.2329 16.1262 19.3944C16.0213 19.2684 15.8225 19.2847 15.7461 19.4297C15.0107 20.8252 14.6256 22.3806 14.6267 23.9614C14.6237 25.535 15.0098 27.0848 15.7508 28.4731C16.4917 29.8613 17.5644 31.0447 18.8733 31.9181C17.4852 31.8803 16.1241 31.5371 14.8862 30.9149C14.7267 30.8347 14.5354 30.9489 14.5437 31.1272C14.6402 33.2021 15.4019 35.2852 16.7204 36.8833C18.1235 38.584 20.0709 39.7479 22.2333 40.1781C21.4009 40.4314 20.5367 40.565 19.6667 40.5747C19.1931 40.5692 18.7205 40.5343 18.2516 40.4701C18.0777 40.4464 17.9357 40.6115 17.9966 40.7761C18.6416 42.5203 19.781 44.0422 21.2792 45.1531C22.8809 46.3408 24.813 46.9997 26.8067 47.0381C23.4401 49.687 19.2837 51.1327 15 51.1447C14.5598 51.1462 14.1199 51.1319 13.6809 51.102C13.4336 51.0851 13.3198 51.4147 13.533 51.5412C17.7068 54.0181 22.4774 55.3273 27.3433 55.3214C30.9359 55.3587 34.5 54.6798 37.8273 53.3243C41.1546 51.9687 44.1784 49.9638 46.7221 47.4266C49.2659 44.8893 51.2786 41.8706 52.6426 38.5468C54.0067 35.2231 54.6948 31.6608 54.6667 28.0681V26.9485C54.6667 26.8748 54.7015 26.8055 54.7603 26.7611C56.343 25.5661 57.7348 24.1394 58.8894 22.5302Z" fill="white"/>
</svg>
