<svg width="80" height="80" viewBox="0 0 80 80" fill="none" xmlns="http://www.w3.org/2000/svg">
<rect width="80" height="80" rx="24" fill="url(#paint0_radial_142_850)" fill-opacity="0.56"/>
<g clip-path="url(#clip0_142_850)">
<g filter="url(#filter0_d_142_850)">
<path d="M20.2834 56.5433L23.5734 59.8333L27.75 55.6333L24.46 52.3433L20.2834 56.5433ZM37.6667 58.6667H42.3334V65.6667H37.6667V58.6667ZM14.3334 37.6667H21.3334V42.3333H14.3334V37.6667ZM42.3334 21.45V30.69L44.6667 32.0433C47.56 33.7233 49.3334 36.8033 49.3334 40.1167C49.3334 45.2733 45.1567 49.45 40 49.45C34.8434 49.45 30.6667 45.2733 30.6667 40.1167C30.6667 36.8033 32.4634 33.7233 35.3334 32.0433L37.6667 30.69V21.45H42.3334ZM47 16.7833H33V28.0067C28.8234 30.4333 26 34.9367 26 40.1167C26 47.84 32.2767 54.1167 40 54.1167C47.7234 54.1167 54 47.84 54 40.1167C54 34.9367 51.1767 30.4333 47 28.0067V16.7833ZM58.6667 37.6667H65.6667V42.3333H58.6667V37.6667ZM52.2267 55.6567L56.4034 59.8567L59.6934 56.5667L55.4934 52.39L52.2267 55.6567Z" fill="white"/>
</g>
</g>
<defs>
<filter id="filter0_d_142_850" x="-17.6666" y="0.783325" width="115.333" height="112.883" filterUnits="userSpaceOnUse" color-interpolation-filters="sRGB">
<feFlood flood-opacity="0" result="BackgroundImageFix"/>
<feColorMatrix in="SourceAlpha" type="matrix" values="0 0 0 0 0 0 0 0 0 0 0 0 0 0 0 0 0 0 127 0" result="hardAlpha"/>
<feOffset dy="16"/>
<feGaussianBlur stdDeviation="16"/>
<feComposite in2="hardAlpha" operator="out"/>
<feColorMatrix type="matrix" values="0 0 0 0 0.00392157 0 0 0 0 0.0352941 0 0 0 0 0.431373 0 0 0 0.32 0"/>
<feBlend mode="normal" in2="BackgroundImageFix" result="effect1_dropShadow_142_850"/>
<feBlend mode="normal" in="SourceGraphic" in2="effect1_dropShadow_142_850" result="shape"/>
</filter>
<radialGradient id="paint0_radial_142_850" cx="0" cy="0" r="1" gradientUnits="userSpaceOnUse" gradientTransform="translate(40 40) rotate(90) scale(40)">
<stop stop-color="white" stop-opacity="0.06"/>
<stop offset="1" stop-color="white" stop-opacity="0.56"/>
</radialGradient>
<clipPath id="clip0_142_850">
<rect width="56" height="56" fill="white" transform="translate(12 12)"/>
</clipPath>
</defs>
</svg>
