<svg width="127" height="120" viewBox="0 0 127 120" fill="none" xmlns="http://www.w3.org/2000/svg">
<rect x="23" y="4" width="80" height="80" rx="24" fill="url(#paint0_radial_142_843)" fill-opacity="0.56"/>
<g filter="url(#filter0_d_142_843)">
<path d="M63.2017 46.4017C71.583 46.4017 78.4026 39.5821 78.4026 31.2008C78.4026 22.8196 71.583 16 63.2017 16C54.8205 16 48.0009 22.8196 48.0009 31.2008C48.0009 39.5821 54.8205 46.4017 63.2017 46.4017ZM63.2017 20.8003C68.9365 20.8003 73.6023 25.4661 73.6023 31.2008C73.6023 36.9356 68.9365 41.6014 63.2017 41.6014C57.467 41.6014 52.8012 36.9356 52.8012 31.2008C52.8012 25.4661 57.467 20.8003 63.2017 20.8003ZM84.8029 61.2826V64.0539C84.8029 66.7004 83.8333 69.2382 82.0764 71.2C81.606 71.7312 80.9467 72 80.2875 72C79.7146 72 79.145 71.7983 78.6874 71.3886C77.6985 70.5054 77.6154 68.9886 78.4987 67.9998C79.4651 66.9181 79.9996 65.5163 79.9996 64.0539V61.2826C79.9996 57.2856 77.3498 53.8295 73.5576 52.879C72.9368 52.7222 72.2902 52.8084 71.7622 53.106C66.4435 56.0693 59.928 56.0566 54.6509 53.1189C54.0972 52.8053 53.4509 52.7251 52.8396 52.8755C49.0442 53.8292 46.3944 57.2856 46.3944 61.2826V64.0539C46.3944 65.5163 46.9288 66.9181 47.8952 67.9998C48.7785 68.9886 48.6954 70.5054 47.7065 71.3886C46.7209 72.2687 45.2007 72.1888 44.3175 71.2C42.5606 69.2382 41.591 66.6972 41.591 64.0539V61.2826C41.591 55.0839 45.7319 49.7139 51.6618 48.2194C53.4539 47.7649 55.4093 48.0242 56.9998 48.9362C60.8112 51.0547 65.5474 51.0674 69.4036 48.9233C70.9717 48.0241 72.9206 47.7617 74.7223 48.2225C80.6618 49.7138 84.8029 55.0839 84.8029 61.2826ZM80.1404 18.1474C80.582 16.8993 81.9516 16.2432 83.2029 16.6848C87.9871 18.3745 91.2033 22.922 91.2033 28.0007C91.2033 31.4121 89.744 34.67 87.2031 36.9453C86.7423 37.3549 86.1726 37.5563 85.603 37.5563C84.9438 37.5563 84.2877 37.2875 83.814 36.7562C82.9308 35.7674 83.014 34.2506 84.0029 33.3674C85.5294 32.0041 86.403 30.0488 86.403 28.0007C86.403 24.9541 84.4733 22.2245 81.6028 21.2101C80.3515 20.7684 79.6988 19.3955 80.1404 18.1474ZM94.4035 53.0677V55.3784C94.4035 56.7032 93.3282 57.7785 92.0033 57.7785C90.6785 57.7785 89.6032 56.7032 89.6032 55.3784V53.0677C89.6032 49.9219 87.5199 47.2017 84.5373 46.4529C83.254 46.1297 82.47 44.8271 82.7933 43.5406C83.1197 42.2541 84.4285 41.4767 85.7053 41.7968C90.8288 43.0832 94.4035 47.717 94.4035 53.0677ZM39.2004 38.3661C36.6595 36.0908 35.2002 32.8328 35.2002 29.4215C35.2002 24.3428 38.4164 19.7953 43.2006 18.1056C44.4615 17.664 45.8215 18.3201 46.2631 19.5682C46.7047 20.8194 46.052 22.1892 44.8007 22.6308C41.9302 23.6453 40.0004 26.3749 40.0004 29.4215C40.0004 31.4664 40.8741 33.4217 42.4006 34.7882C43.3894 35.6714 43.4727 37.1886 42.5895 38.1774C42.119 38.7086 41.4597 38.9775 40.8005 38.9775C40.2309 38.9775 39.658 38.7757 39.2004 38.3661ZM41.8662 47.8737C38.8836 48.6225 36.8003 51.3427 36.8003 54.4885V56.8023C36.8003 58.1271 35.725 59.2024 34.4001 59.2024C33.0753 59.2024 32 58.1271 32 56.8023V54.4916C32 49.1409 35.5779 44.5071 40.6981 43.2207C41.9814 42.907 43.287 43.6784 43.6102 44.9649C43.9334 46.245 43.1526 47.5504 41.8662 47.8737Z" fill="white"/>
</g>
<defs>
<filter id="filter0_d_142_843" x="0" y="0" width="126.403" height="120" filterUnits="userSpaceOnUse" color-interpolation-filters="sRGB">
<feFlood flood-opacity="0" result="BackgroundImageFix"/>
<feColorMatrix in="SourceAlpha" type="matrix" values="0 0 0 0 0 0 0 0 0 0 0 0 0 0 0 0 0 0 127 0" result="hardAlpha"/>
<feOffset dy="16"/>
<feGaussianBlur stdDeviation="16"/>
<feComposite in2="hardAlpha" operator="out"/>
<feColorMatrix type="matrix" values="0 0 0 0 0.00392157 0 0 0 0 0.0352941 0 0 0 0 0.431373 0 0 0 0.32 0"/>
<feBlend mode="normal" in2="BackgroundImageFix" result="effect1_dropShadow_142_843"/>
<feBlend mode="normal" in="SourceGraphic" in2="effect1_dropShadow_142_843" result="shape"/>
</filter>
<radialGradient id="paint0_radial_142_843" cx="0" cy="0" r="1" gradientUnits="userSpaceOnUse" gradientTransform="translate(63 44) rotate(90) scale(40)">
<stop stop-color="white" stop-opacity="0.06"/>
<stop offset="1" stop-color="white" stop-opacity="0.56"/>
</radialGradient>
</defs>
</svg>
